<?xml version="1.0" encoding="UTF-8"?>
<svg width="512" height="512" viewBox="0 0 24 24" xmlns="http://www.w3.org/2000/svg">
    <path d="M2 12C2 12.5523 2.44772 13 3 13C3.55228 13 4 12.5523 4 12C4 11.4477 3.55228 11 3 11C2.44772 11 2 11.4477 2 12Z" fill="#4F95FF"/>
    <path d="M5 7C5 7.55228 5.44772 8 6 8C6.55228 8 7 7.55228 7 7C7 6.44772 6.55228 6 6 6C5.44772 6 5 6.44772 5 7Z" fill="#4F95FF"/>
    <path d="M6 17C5.44772 17 5 16.5523 5 16C5 15.4477 5.44772 15 6 15C6.55228 15 7 15.4477 7 16C7 16.5523 6.55228 17 6 17Z" fill="#4F95FF"/>
    <path d="M8 4C8 4.55228 8.44772 5 9 5C9.55229 5 10 4.55228 10 4C10 3.44772 9.55229 3 9 3C8.44772 3 8 3.44772 8 4Z" fill="#4F95FF"/>
    <path d="M9 21C8.44772 21 8 20.5523 8 20C8 19.4477 8.44772 19 9 19C9.55229 19 10 19.4477 10 20C10 20.5523 9.55229 21 9 21Z" fill="#4F95FF"/>
    <path d="M11 1C11 1.55228 11.4477 2 12 2C12.5523 2 13 1.55228 13 1C13 0.447715 12.5523 0 12 0C11.4477 0 11 0.447715 11 1Z" fill="#4F95FF"/>
    <path d="M12 24C11.4477 24 11 23.5523 11 23C11 22.4477 11.4477 22 12 22C12.5523 22 13 22.4477 13 23C13 23.5523 12.5523 24 12 24Z" fill="#4F95FF"/>
    <path d="M14 3C14 3.55228 14.4477 4 15 4C15.5523 4 16 3.55228 16 3C16 2.44772 15.5523 2 15 2C14.4477 2 14 2.44772 14 3Z" fill="#4F95FF"/>
    <path d="M15 22C14.4477 22 14 21.5523 14 21C14 20.4477 14.4477 20 15 20C15.5523 20 16 20.4477 16 21C16 21.5523 15.5523 22 15 22Z" fill="#4F95FF"/>
    <path d="M17 6C17 6.55228 17.4477 7 18 7C18.5523 7 19 6.55228 19 6C19 5.44772 18.5523 5 18 5C17.4477 5 17 5.44772 17 6Z" fill="#4F95FF"/>
    <path d="M18 19C17.4477 19 17 18.5523 17 18C17 17.4477 17.4477 17 18 17C18.5523 17 19 17.4477 19 18C19 18.5523 18.5523 19 18 19Z" fill="#4F95FF"/>
    <path d="M20 10C20 10.5523 20.4477 11 21 11C21.5523 11 22 10.5523 22 10C22 9.44772 21.5523 9 21 9C20.4477 9 20 9.44772 20 10Z" fill="#4F95FF"/>
    <path d="M21 15C20.4477 15 20 14.5523 20 14C20 13.4477 20.4477 13 21 13C21.5523 13 22 13.4477 22 14C22 14.5523 21.5523 15 21 15Z" fill="#4F95FF"/>
    <path d="M3 15.5C2.44772 15.5 2 15.0523 2 14.5C2 13.9477 2.44772 13.5 3 13.5C3.55228 13.5 4 13.9477 4 14.5C4 15.0523 3.55228 15.5 3 15.5Z" fill="#4F95FF"/>
    <path d="M2 9.5C2 10.0523 2.44772 10.5 3 10.5C3.55228 10.5 4 10.0523 4 9.5C4 8.94772 3.55228 8.5 3 8.5C2.44772 8.5 2 8.94772 2 9.5Z" fill="#4F95FF"/>
    <path d="M6 14.5C5.44772 14.5 5 14.0523 5 13.5C5 12.9477 5.44772 12.5 6 12.5C6.55228 12.5 7 12.9477 7 13.5C7 14.0523 6.55228 14.5 6 14.5Z" fill="#4F95FF"/>
    <path d="M5 10.5C5 11.0523 5.44772 11.5 6 11.5C6.55228 11.5 7 11.0523 7 10.5C7 9.94772 6.55228 9.5 6 9.5C5.44772 9.5 5 9.94772 5 10.5Z" fill="#4F95FF"/>
    <path d="M9 9.5C8.44772 9.5 8 9.05228 8 8.5C8 7.94772 8.44772 7.5 9 7.5C9.55229 7.5 10 7.94772 10 8.5C10 9.05228 9.55229 9.5 9 9.5Z" fill="#4F95FF"/>
    <path d="M8 16.5C8 17.0523 8.44772 17.5 9 17.5C9.55229 17.5 10 17.0523 10 16.5C10 15.9477 9.55229 15.5 9 15.5C8.44772 15.5 8 15.9477 8 16.5Z" fill="#4F95FF"/>
    <path d="M12 7.5C11.4477 7.5 11 7.05228 11 6.5C11 5.94772 11.4477 5.5 12 5.5C12.5523 5.5 13 5.94772 13 6.5C13 7.05228 12.5523 7.5 12 7.5Z" fill="#4F95FF"/>
    <path d="M11 18.5C11 19.0523 11.4477 19.5 12 19.5C12.5523 19.5 13 19.0523 13 18.5C13 17.9477 12.5523 17.5 12 17.5C11.4477 17.5 11 17.9477 11 18.5Z" fill="#4F95FF"/>
    <path d="M15 8.5C14.4477 8.5 14 8.05228 14 7.5C14 6.94772 14.4477 6.5 15 6.5C15.5523 6.5 16 6.94772 16 7.5C16 8.05228 15.5523 8.5 15 8.5Z" fill="#4F95FF"/>
    <path d="M14 17.5C14 18.0523 14.4477 18.5 15 18.5C15.5523 18.5 16 18.0523 16 17.5C16 16.9477 15.5523 16.5 15 16.5C14.4477 16.5 14 16.9477 14 17.5Z" fill="#4F95FF"/>
    <path d="M18 11.5C17.4477 11.5 17 11.0523 17 10.5C17 9.94772 17.4477 9.5 18 9.5C18.5523 9.5 19 9.94772 19 10.5C19 11.0523 18.5523 11.5 18 11.5Z" fill="#4F95FF"/>
    <path d="M17 14.5C17 15.0523 17.4477 15.5 18 15.5C18.5523 15.5 19 15.0523 19 14.5C19 13.9477 18.5523 13.5 18 13.5C17.4477 13.5 17 13.9477 17 14.5Z" fill="#4F95FF"/>
    <path d="M12 12.5C12.5523 12.5 13 12.0523 13 11.5C13 10.9477 12.5523 10.5 12 10.5C11.4477 10.5 11 10.9477 11 11.5C11 12.0523 11.4477 12.5 12 12.5Z" fill="#4F95FF"/>
    <path d="M11 12.5C11 13.0523 11.4477 13.5 12 13.5C12.5523 13.5 13 13.0523 13 12.5C13 11.9477 12.5523 11.5 12 11.5C11.4477 11.5 11 11.9477 11 12.5Z" fill="#4F95FF"/>
</svg>